<svg width="491" height="447" viewBox="0 0 491 447" fill="none" xmlns="http://www.w3.org/2000/svg">
<path d="M357.893 189.084C357.893 189.084 384.816 232.232 410.547 256.004C436.277 279.775 466.227 304.128 448.089 348.848C429.951 393.568 376.49 411.882 280.89 409.545C185.29 407.208 151.535 406.699 130.569 359.273C109.603 311.846 179.382 301.21 227.047 286.791C274.712 272.372 357.893 189.084 357.893 189.084Z" fill="#E3E5FC"/>
<path opacity="0.49" d="M362.489 283.279C362.489 283.279 375.602 333.893 328.852 345.907C282.101 357.926 194.867 356.156 162.027 332.772C129.186 309.388 362.489 283.279 362.489 283.279Z" fill="url(#paint0_linear_20_609)"/>
<path d="M411.828 402.232C416.457 399.382 418.664 393.136 416.853 388.012C413.89 379.636 406.231 382.46 400.786 378.06C394.374 372.881 402.128 364.735 401.7 358.62C401.232 351.893 395.176 345.395 393.352 338.892C389.168 323.947 406.159 335.101 411.004 333.358C413.03 332.629 414.359 330.593 414.827 328.486C416.016 323.114 413.755 318.773 416.696 313.689C419.537 308.78 423.734 306.565 422.523 299.9C421.838 296.127 419.51 292.668 419.569 288.832C419.587 287.733 419.897 286.499 420.857 285.963C421.586 285.554 422.496 285.666 423.284 285.941C425.9 286.859 427.62 289.3 429.728 291.106C431.835 292.912 435.221 294.028 437.243 292.128C438.59 290.863 438.72 288.818 438.995 286.99C439.486 283.694 441.8 281.406 444.673 283.311C447.803 285.387 446.605 293.56 446.132 296.492C445.385 301.139 444.25 305.966 445.632 310.469C447.915 317.917 454.157 309.573 456.877 307.105C459.106 305.083 462.83 303.872 464.969 305.984C469.228 310.185 462.379 315.801 461.479 319.781C461.046 321.677 461.605 323.947 463.289 324.919C468.22 327.774 472.385 322.686 473.133 330.283C473.646 335.488 468.936 340.45 471.858 345.656C474.411 350.204 482.909 352.136 479.549 358.517C477.487 362.434 468.607 362.259 469.075 367.834C469.382 371.468 474.844 373.116 474.848 376.763C474.853 379.51 471.656 381.131 468.913 381.271C466.171 381.41 463.28 380.771 460.754 381.843C457.885 383.058 456.224 386.584 457.111 389.574C457.885 392.173 460.303 394.537 459.542 397.14C458.628 400.269 454.292 400.382 451.072 399.882C437.914 397.824 423.824 396.451 411.828 402.232Z" fill="#FDC510"/>
<path d="M436.676 400.936C436.207 400.936 435.833 400.557 435.833 400.093V341.387C435.833 340.923 436.212 340.545 436.676 340.545C437.144 340.545 437.518 340.923 437.518 341.387V400.089C437.518 400.557 437.144 400.936 436.676 400.936Z" fill="white"/>
<path d="M436.676 378.087C436.487 378.087 436.302 378.024 436.144 377.898C435.784 377.605 435.726 377.074 436.023 376.709L451.419 357.729C451.716 357.364 452.247 357.314 452.608 357.607C452.968 357.9 453.026 358.431 452.729 358.796L437.333 377.776C437.162 377.979 436.923 378.087 436.676 378.087Z" fill="white"/>
<path d="M436.676 362.056C436.482 362.056 436.288 361.993 436.131 361.858L417.781 346.417C417.425 346.115 417.38 345.584 417.677 345.228C417.979 344.872 418.51 344.827 418.866 345.125L437.216 360.566C437.572 360.867 437.617 361.399 437.32 361.754C437.153 361.957 436.914 362.056 436.676 362.056Z" fill="white"/>
<path d="M409.261 394.005C411.675 410.05 413.85 426.833 417.912 442.314C418.249 443.602 418.646 444.953 419.465 445.782C420.433 446.759 421.748 446.777 422.96 446.75C429.966 446.588 436.987 447.038 443.993 446.997C450.617 446.961 456.089 447.497 456.782 436.496C457.021 432.682 457.624 394.001 461.141 394.001C461.128 394.005 409.261 394.005 409.261 394.005Z" fill="#978CFF"/>
<path d="M456.404 403.592H413.999C408.726 403.592 404.407 399.278 404.407 394.001C404.407 388.728 408.721 384.409 413.999 384.409H456.404C461.677 384.409 465.996 388.723 465.996 394.001C465.996 399.278 461.677 403.592 456.404 403.592Z" fill="#A7ADFF"/>
<path d="M324.357 20.0297C324.357 20.0297 329.914 32.3771 321.232 39.9782C312.55 47.5794 300.747 41.5633 289.292 48.525C277.836 55.4868 279.07 63.7364 284.325 82.1044C290.575 103.953 297.402 103.3 303.539 104.881C309.677 106.466 311.51 123.564 312.203 131.48C312.897 139.397 313.937 144.778 292.065 155.545C270.194 166.312 282.127 182.779 284.32 204.124C286.747 227.733 258.734 241.351 253.875 247.052C249.016 252.753 237.556 253.703 231.306 241.67C225.055 229.638 256.815 220.781 254.042 201.467C251.263 182.153 234.305 169.158 258.261 150.159C282.217 131.161 277.484 115.967 269.501 100.454C261.517 84.9413 257.698 78.9252 264.291 58.9767C270.883 39.0281 263.944 45.0442 272.621 29.2114C281.308 13.3831 312.901 -4.03472 324.357 20.0297Z" fill="#4B369D"/>
<path d="M309.249 113.743L310.992 146.251L336.439 156.063C336.439 156.063 321.137 133.674 323.731 113.738C326.325 93.8079 309.249 113.743 309.249 113.743Z" fill="#D4A79A"/>
<path d="M368.221 219.2C368.221 219.2 366.533 216.107 361.471 200.22C356.41 184.333 354.582 178.425 347.552 163.052C340.523 147.678 325.897 138.073 325.897 138.073L307.619 137.087C307.619 137.087 305.368 137.226 294.826 145.944C284.28 154.662 274.157 179.551 274.157 179.551L269.658 229.044L301.297 252.383L323.659 260.444C322.583 259.007 321.714 257.485 321.173 255.873C317.427 244.737 329.981 183.063 330.405 177.578C330.828 172.094 341.451 224.401 341.451 224.401L350.65 221.731L356.964 241.846L360.913 221.308L368.221 219.2Z" fill="#F44E4E"/>
<path d="M358.238 245.917L356.959 241.846L354.919 252.455L358.238 245.917Z" fill="url(#paint1_linear_20_609)"/>
<path d="M341.441 224.401C341.441 224.401 330.818 172.094 330.395 177.578C329.971 183.063 317.417 244.737 321.163 255.873C321.704 257.485 322.573 259.007 323.649 260.444L346.655 268.734L354.918 252.451L356.958 241.842L350.645 221.726L341.441 224.401Z" fill="#FDC510"/>
<path d="M341.441 224.401C341.441 224.401 330.818 172.094 330.395 177.578C329.971 183.063 317.417 244.737 321.163 255.873C321.704 257.485 322.573 259.007 323.649 260.444L346.655 268.734L354.918 252.451L356.958 241.842L350.645 221.726L341.441 224.401Z" fill="#D7384E"/>
<path d="M155.006 204.732L284.181 210.964L309.249 235.245L188.594 232.205L155.006 204.732Z" fill="black"/>
<path d="M276.813 214.882L160.193 207.006C157.041 207.249 154.307 205.128 154.087 202.26L130.585 139.208C130.364 136.344 132.737 133.822 135.885 133.579L252.505 141.459C255.658 141.216 258.391 143.337 258.612 146.206L282.113 209.257C282.338 212.117 279.961 214.639 276.813 214.882Z" fill="#E3E5FC"/>
<path d="M218.307 179.521C219.693 173.147 214.788 166.669 207.351 165.052C199.914 163.436 192.762 167.293 191.377 173.668C189.991 180.042 194.897 186.52 202.333 188.137C209.77 189.753 216.922 185.896 218.307 179.521Z" fill="#A7ADFF"/>
<path d="M101.865 316.696L68.8887 364.991L83.9019 377.677L115.315 325.243C115.315 325.238 108.115 317.137 101.865 316.696Z" fill="#D4A79A"/>
<path d="M2.10371 391.929C2.10371 391.929 14.7888 396.261 39.0964 398.062C63.4039 399.868 90.5349 400.768 95.4658 397.161C100.397 393.554 103.567 362.884 95.4658 362.884C87.3647 362.884 84.2126 374.61 69.9244 364.145C57.685 355.179 47.9044 372.084 26.5914 376.591C5.27837 381.099 -3.354 382.909 2.10371 391.929Z" fill="#F3AA02"/>
<path d="M307.128 264.474C304.215 258.994 288.445 262.083 269.546 255.054C250.642 248.024 238.434 233.259 216.959 216.246C195.484 199.234 196.952 202.183 187.685 201.481C178.417 200.778 166.943 225.806 160.468 239.027C146.837 266.865 129.586 291.74 103.815 307.924C95.9842 312.841 61.4817 331.547 55.7178 339.382C43.5775 355.873 103.266 356.012 118.873 357.917C134.323 359.799 142.987 351.023 149.237 337.153C156.37 321.334 164.174 305.853 171.969 290.371C175.869 282.626 179.786 274.885 183.609 267.099C185.257 263.745 188.824 251.568 192.8 250.051C205.03 245.395 221.174 282.675 224.605 291.051C231.517 307.924 256.82 327.611 275.206 329.579C293.592 331.547 307.421 319.317 313.451 301.458C319.485 283.599 307.128 264.474 307.128 264.474Z" fill="#4B369D"/>
<path d="M164.768 320.357L131.792 368.652L146.805 381.338L178.219 328.904C178.214 328.899 171.018 320.798 164.768 320.357Z" fill="#EAC2AB"/>
<path d="M65.0068 395.59C65.0068 395.59 77.6919 399.922 101.999 401.723C126.307 403.529 153.438 404.429 158.369 400.822C163.3 397.215 166.47 366.545 158.369 366.545C150.268 366.545 147.116 378.271 132.827 367.806C120.588 358.84 110.807 375.745 89.4945 380.252C68.1815 384.76 59.5446 386.57 65.0068 395.59Z" fill="#FDC510"/>
<path d="M354.86 264.474C352.077 258.994 337.001 262.083 318.935 255.054C300.868 248.024 289.196 233.259 268.667 216.246C248.138 199.234 249.542 202.183 240.685 201.481C231.827 200.778 220.858 225.806 214.671 239.027C195.636 279.694 156.464 306.987 120.813 332.097C118.598 333.655 116.112 335.821 116.571 338.491C116.806 339.851 117.778 340.95 118.773 341.909C131.999 354.675 156.775 360.416 174.58 359.583C192.507 358.746 202.238 343.786 209.01 328.994C221.124 302.529 232.958 275.259 247.674 250.141C253.203 240.711 270.828 278.78 272.359 282.324C281.487 303.489 299.608 326.81 324.352 329.579C341.927 331.547 355.144 319.317 360.912 301.458C366.672 283.599 354.86 264.474 354.86 264.474Z" fill="#5A54FF"/>
<path d="M286.512 44.5443C286.512 44.5443 272.922 54.5682 278.33 77.0835C283.738 99.5988 300.557 118.827 307.343 117.471C326.107 113.725 332.686 100.463 339.193 89.0841C347.173 75.1292 331.331 41.086 331.331 41.086L316.367 33.0165L286.512 44.5443Z" fill="#EAC2AB"/>
<path d="M313.596 34.5972C313.596 34.5972 323.039 37.7629 331.338 51.0604C339.637 64.358 334.193 66.5284 334.193 84.3561C334.193 89.5661 333.216 94.6996 330.392 99.1396C328.343 102.364 325.421 104.904 323.3 108.065C320.62 112.054 319.765 116.557 319.981 121.317C320.436 131.382 322.043 139.739 330.982 145.422C340.646 151.564 345.153 159.769 347.693 170.855C350.732 184.13 372.617 191.642 380.255 186.576C387.892 181.51 365.111 184.891 369.627 163.047C374.139 141.198 375.688 131.926 362.494 125.856C349.3 119.786 355.605 118.183 362.548 104.886C369.492 91.588 351.593 91.7501 358.658 68.6043C366.813 41.8877 359.423 12.1134 319.495 20.345C279.566 28.5766 313.596 34.5972 313.596 34.5972Z" fill="#4B369D"/>
<path d="M303.874 60.0215C315.329 53.0552 312.555 47.575 321.237 39.9783C329.915 32.3771 324.362 20.0297 324.362 20.0297C312.907 -4.03464 281.313 13.3787 272.631 29.2115C263.949 45.0443 270.898 39.0282 264.301 58.9767C259.753 72.7246 260.158 79.8574 263.463 88.044L282.137 95.6047C274.577 66.9201 295.255 65.2585 303.874 60.0215Z" fill="#4B369D"/>
<path d="M350.362 245.07C350.362 245.07 350.362 252.802 347.408 251.397C344.454 249.992 316.755 232.696 313.099 228.621C309.442 224.541 300.864 209.78 300.445 206.826C300.022 203.872 301.431 203.732 295.663 204.574C289.899 205.416 279.493 208.654 281.042 210.478C282.586 212.306 286.945 211.041 286.945 211.041C286.945 211.041 281.839 214.274 284.32 214.697C286.801 215.12 294.114 213.711 294.114 215.962C294.114 218.214 293.691 225.806 295.379 229.602C297.068 233.398 299.175 234.664 304.66 235.929C310.145 237.194 311.113 236.771 315.621 241.414C320.128 246.056 345.296 268.41 348.529 269.535C351.762 270.661 353.167 272.629 357.107 265.456C361.048 258.282 363.857 252.802 364.137 241.553C364.416 230.305 363.15 219.479 363.15 219.479L350.636 221.731C350.645 221.731 351.767 234.385 350.362 245.07Z" fill="#EAC2AB"/>
<path d="M390.844 102.238C393.087 91.9616 398.094 81.7171 401.768 71.8509C403.723 66.6093 408.014 59.5395 408.451 53.9242C408.595 52.0824 410.351 50.718 412.373 50.8756L487.277 45.8142C489.299 45.9718 490.826 47.5884 490.681 49.4301L475.587 89.9262C475.443 91.768 473.687 93.1324 471.665 92.9748L411.256 96.8339C407.555 99.0809 401.683 101.328 397.977 103.566C393.866 106.047 388.786 111.667 390.844 102.238Z" fill="#E3E5FC"/>
<path d="M445.052 76.453L469.391 75.3948C471.03 75.3228 472.309 73.9268 472.237 72.2877C472.165 70.6486 470.769 69.3697 469.13 69.4418L444.791 70.5C443.152 70.572 441.873 71.968 441.945 73.6071C442.017 75.2417 443.413 76.5206 445.052 76.453Z" fill="white"/>
<path d="M427.548 66.3707L471.642 64.4569C473.282 64.3848 474.56 62.9889 474.488 61.3498C474.416 59.7106 473.02 58.4318 471.381 58.5038L427.287 60.4176C425.648 60.4897 424.369 61.8856 424.441 63.5247C424.513 65.1593 425.909 66.4427 427.548 66.3707Z" fill="white"/>
<path d="M171.563 111.442C168.97 99.5448 163.174 87.6882 158.914 76.2684C156.654 70.2028 151.682 62.0208 151.178 55.5183C151.011 53.3884 148.981 51.8078 146.639 51.9924L59.9369 46.1339C57.5953 46.3141 55.8301 48.1873 55.9967 50.3173L73.4686 97.1942C73.6352 99.3241 75.6661 100.905 78.0077 100.72L147.931 105.192C152.218 107.79 159.009 110.397 163.305 112.986C168.064 115.855 173.946 122.362 171.563 111.442Z" fill="#E3E5FC"/>
<path d="M108.817 81.5956L80.6461 80.3708C78.7503 80.2897 77.2688 78.6686 77.3499 76.7728C77.4309 74.877 79.052 73.3955 80.9478 73.4766L109.119 74.7014C111.015 74.7825 112.496 76.4036 112.415 78.2994C112.33 80.1951 110.713 81.6767 108.817 81.5956Z" fill="white"/>
<path d="M129.077 69.9282L78.0353 67.7127C76.1395 67.6316 74.658 66.0105 74.739 64.1147C74.8201 62.2189 76.4412 60.7374 78.337 60.8185L129.379 63.034C131.275 63.115 132.757 64.7361 132.675 66.6319C132.59 68.5277 130.973 70.0092 129.077 69.9282Z" fill="white"/>
<g opacity="0.72">
<path d="M219.165 42.0451C217.494 34.3854 213.761 26.7527 211.023 19.3992C209.569 15.495 206.367 10.2265 206.043 6.03861C205.935 4.66517 204.629 3.65199 203.12 3.76907L147.296 0C145.787 0.11708 144.653 1.3239 144.756 2.69283L156.005 32.8724C156.113 34.2458 157.419 35.259 158.927 35.1419L203.949 38.0194C206.709 39.6945 211.082 41.3697 213.847 43.0358C216.913 44.8866 220.696 49.0744 219.165 42.0451Z" fill="#E3E5FC"/>
<path d="M178.764 22.826L160.626 22.038C159.405 21.984 158.451 20.9438 158.505 19.7234C158.559 18.5031 159.599 17.5484 160.819 17.6025L178.958 18.3905C180.178 18.4446 181.133 19.4848 181.078 20.7051C181.024 21.9254 179.984 22.8801 178.764 22.826Z" fill="white"/>
<path d="M191.81 15.3149L158.946 13.8875C157.726 13.8334 156.771 12.7932 156.825 11.5729C156.879 10.3526 157.92 9.3979 159.14 9.45194L192.003 10.8794C193.224 10.9334 194.178 11.9737 194.124 13.194C194.07 14.4143 193.03 15.369 191.81 15.3149Z" fill="white"/>
</g>
<path d="M222.564 85.7113L194.393 84.4865C192.497 84.4055 191.016 82.7843 191.097 80.8886C191.178 78.9928 192.799 77.5113 194.695 77.5923L222.866 78.8171C224.762 78.8982 226.243 80.5193 226.162 82.4151C226.077 84.3109 224.456 85.7924 222.564 85.7113Z" fill="#E3E5FC"/>
<path d="M225.373 99.4772L197.202 98.2524C195.306 98.1714 193.825 96.5502 193.906 94.6545C193.987 92.7587 195.608 91.2772 197.504 91.3582L225.675 92.583C227.571 92.6641 229.052 94.2852 228.971 96.181C228.886 98.0768 227.269 99.5628 225.373 99.4772Z" fill="#E3E5FC"/>
<path d="M230.369 113.612L202.198 112.387C200.302 112.306 198.821 110.685 198.902 108.79C198.983 106.894 200.604 105.412 202.5 105.493L230.671 106.718C232.567 106.799 234.048 108.42 233.967 110.316C233.886 112.212 232.265 113.693 230.369 113.612Z" fill="#E3E5FC"/>
<defs>
<linearGradient id="paint0_linear_20_609" x1="378.85" y1="341.449" x2="376.483" y2="267.712" gradientUnits="userSpaceOnUse">
<stop stop-color="#A7ADFF"/>
<stop offset="1" stop-color="#E3E5FC"/>
</linearGradient>
<linearGradient id="paint1_linear_20_609" x1="371.98" y1="202.228" x2="314.917" y2="182.05" gradientUnits="userSpaceOnUse">
<stop stop-color="#A7ADFF"/>
<stop offset="1" stop-color="#E3E5FC"/>
</linearGradient>
</defs>
</svg>
