<svg width="58" height="46" viewBox="0 0 58 46" fill="none" xmlns="http://www.w3.org/2000/svg">
<path d="M7.48291 8.65649L-0.000203609 7.09497L5.30625 13.2126L7.48291 8.65649Z" fill="#4B369D"/>
<path d="M35.8001 28.9564C37.8753 31.471 40.0114 34.4656 42.5937 36.6964C45.1556 38.9068 49.9551 39.3462 51.9087 41.7392C45.9127 48.2827 31.1155 43.6387 24.6464 40.2453C16.0141 35.7229 8.99063 27.9559 5.93519 18.6477C4.30608 13.6792 4.04921 7.4534 7.97666 3.99914C9.88293 2.32271 12.4381 1.6332 14.919 1.0789C18.7991 0.213643 23.5715 -0.719211 27.4111 0.835546C33.2516 3.20148 26.8771 2.84997 25.5725 5.53362C24.0312 8.70397 27.2354 14.7405 28.6211 17.4444C30.6896 21.4665 32.9001 25.4548 35.8001 28.9564Z" fill="#A7ADFF"/>
<path d="M12.9243 8.65648C12.0619 8.65648 11.3628 7.95737 11.3628 7.09496C11.3628 6.23256 12.0619 5.53345 12.9243 5.53345C13.7867 5.53345 14.4858 6.23256 14.4858 7.09496C14.4858 7.95737 13.7867 8.65648 12.9243 8.65648Z" fill="#4B369D"/>
<path d="M39.0716 9.64359C43.0936 8.18347 47.6024 7.38581 50.6511 4.37769C52.3275 2.72154 53.7268 0.321802 56.0725 0.125767C56.4308 0.0919679 56.8228 0.132527 57.0865 0.38264C57.4109 0.693591 57.4109 1.20058 57.3906 1.64673C57.2555 4.32361 57.1067 7.0681 56.0454 9.52867C54.9842 11.9892 52.794 14.1456 50.1238 14.3755C49.7994 14.4025 49.4479 14.4093 49.1707 14.5782C48.3663 15.0717 48.8057 16.3628 49.529 16.978C50.2523 17.5931 51.2325 18.0731 51.4353 18.9924C51.6516 19.9658 50.7998 20.919 49.8399 21.1893C48.88 21.4597 47.8593 21.2231 46.8859 20.9866C47.2442 22.69 47.3185 24.9681 45.7097 25.6305C44.3104 26.2119 42.3974 25.0762 41.3158 26.1308C40.9102 26.5228 40.775 27.1109 40.552 27.6247C39.8151 29.3011 38.0035 30.3219 36.1784 30.5044C34.36 30.6869 32.5348 30.1461 30.8651 29.4025C26.5591 27.4895 21.8273 23.2376 25.2748 18.8167C28.5127 14.6661 34.218 11.4011 39.0716 9.64359Z" fill="#978CFF"/>
</svg>
