<svg width="339" height="324" viewBox="0 0 339 324" fill="none" xmlns="http://www.w3.org/2000/svg">
<path d="M21.6541 240.648C14.9822 238.39 8.47924 234.875 4.23407 229.251C-0.00433151 223.627 -1.53205 215.583 1.84786 209.398C5.27508 203.118 12.5216 200.218 18.6054 196.439C24.6825 192.667 30.4892 185.853 28.2247 179.066C26.0345 172.516 17.9835 170.447 12.5554 166.175C7.96549 162.559 5.01821 156.455 6.37693 150.77C7.7289 145.085 14.171 140.758 19.6735 142.732C22.9317 143.902 25.5613 146.95 29.0223 146.977C34.9507 147.031 36.9381 138.629 34.8831 133.072C32.8281 127.509 28.6776 122.291 29.3738 116.403C30.1782 109.643 37.6478 105.141 44.4279 105.736C51.208 106.331 57.0755 110.792 61.4897 115.97C71.0075 127.144 75.273 141.711 79.8899 155.643C80.7349 158.199 81.8029 160.99 84.2027 162.207C86.6362 163.444 89.5632 162.613 92.1657 161.768C100.44 159.064 108.714 156.36 116.988 153.656C115.027 154.298 151.443 193.87 152.889 198.284C157.858 213.467 153.558 230.644 139.275 238.411C125.235 246.042 105.861 244.447 90.4961 244.589C67.9994 244.785 43.3261 247.969 21.6541 240.648Z" fill="#A7ADFF"/>
<path d="M101.116 190.882C98.4187 183.406 96.749 174.801 100.399 167.744C105.381 158.104 129.061 147.876 117.488 134.154C111.864 127.489 99.4732 127.198 97.1816 118.782C94.836 110.19 105.28 103.208 108.389 96.1504C112.107 87.7141 112.067 78.4734 110.073 69.6384C105.733 50.4608 91.5372 34.8524 81.918 18.23C80.0725 15.0393 78.2947 11.4228 79.0653 7.82662C79.9509 3.69638 84.0879 0.904575 88.2654 0.242113C95.5322 -0.907056 108.592 2.06726 113.128 8.46881C117.664 14.8704 116.4 24.8005 122.571 29.6405C128.642 34.3995 137.768 31.0128 145.001 33.6897C163.266 40.4562 153.065 74.715 170.627 83.1242C173.439 84.4694 176.63 84.8818 179.469 86.1729C186.114 89.1945 189.676 96.3464 192.738 102.971C196.287 110.657 199.924 118.877 198.788 127.266C196.646 143.151 178.029 155.907 182.653 171.259C184.025 175.815 187.452 180.094 186.56 184.772C184.897 193.498 170.931 193.762 167.112 201.779C162.975 210.479 172.256 219.632 167.45 228.535C163.597 235.68 150.192 239.837 142.567 238.607C123.126 235.484 107.064 207.376 101.116 190.882Z" fill="#E3E5FC"/>
<path d="M153.869 239.992C153.403 239.992 152.997 239.654 152.93 239.181L131.035 88.0858C130.96 87.5653 131.319 87.0853 131.839 87.011C132.346 86.9366 132.84 87.2949 132.914 87.8154L154.809 238.911C154.883 239.431 154.525 239.911 154.005 239.986C153.964 239.992 153.917 239.992 153.869 239.992Z" fill="white"/>
<path d="M140.404 140.63C140.289 140.63 140.174 140.609 140.059 140.562C139.572 140.373 139.329 139.819 139.518 139.332L152.849 105.208C153.038 104.722 153.599 104.478 154.079 104.668C154.566 104.857 154.809 105.411 154.62 105.898L141.289 140.021C141.141 140.4 140.782 140.63 140.404 140.63Z" fill="white"/>
<path d="M147.691 197.324C147.434 197.324 147.17 197.216 146.988 197.014L126.046 173.78C125.695 173.388 125.728 172.786 126.114 172.442C126.506 172.083 127.101 172.124 127.459 172.509L148.401 195.743C148.752 196.135 148.718 196.736 148.333 197.088C148.144 197.243 147.914 197.324 147.691 197.324Z" fill="white"/>
<path d="M83.6081 323.794C83.1417 323.794 82.7361 323.456 82.6685 322.983L60.7734 171.887C60.6991 171.367 61.0573 170.887 61.5779 170.813C62.0848 170.745 62.5783 171.096 62.6527 171.617L84.5477 322.712C84.6221 323.233 84.2638 323.713 83.7433 323.787C83.7027 323.787 83.6554 323.794 83.6081 323.794Z" fill="white"/>
<path d="M70.1427 224.431C70.0277 224.431 69.9128 224.411 69.7979 224.364C69.3112 224.175 69.0678 223.62 69.2571 223.134L82.5875 189.01C82.7767 188.523 83.3378 188.28 83.8178 188.469C84.3045 188.659 84.5478 189.213 84.3585 189.7L71.0282 223.823C70.8795 224.202 70.5212 224.431 70.1427 224.431Z" fill="white"/>
<path d="M77.4298 281.119C77.1729 281.119 76.9093 281.011 76.7267 280.808L55.7848 257.575C55.4333 257.183 55.4671 256.581 55.8524 256.236C56.2445 255.878 56.8394 255.919 57.1909 256.304L78.1328 279.537C78.4843 279.929 78.4505 280.531 78.0652 280.876C77.8827 281.045 77.6528 281.119 77.4298 281.119Z" fill="white"/>
<path d="M315.915 191.592C316.172 191.599 316.429 191.666 316.693 191.808C317.517 192.254 317.822 193.268 318.018 194.188C319.809 202.59 319.762 200.528 318.869 211.554C320.749 204.672 320.005 205.875 323.52 199.663C324.203 198.453 324.96 197.216 326.143 196.493C333.815 191.795 326.386 212.608 325.088 214.994C320.275 223.85 310.913 226.04 301.828 222.782C293.858 219.922 286.247 213.717 283.394 205.598C283.137 204.868 282.948 203.949 283.495 203.395C283.874 203.016 284.462 202.962 284.996 202.955C289.809 202.948 294.318 205.396 298.002 208.492C301.679 211.594 304.728 215.366 308.189 218.706C310.643 221.072 316.057 220.936 319.437 221.342C325.19 222.038 327.461 219.807 332.457 216.867C333.545 216.225 334.735 215.643 335.999 215.657C337.263 215.67 338.601 216.461 338.838 217.705C338.98 218.442 338.723 219.199 338.399 219.882C334.309 228.521 323.162 227.358 318.248 220.463C313.563 213.886 310.541 202.935 312.786 195.046C313.239 193.451 314.496 191.558 315.915 191.592Z" fill="#FDC510"/>
<path d="M273.984 206.112C274.518 205.632 274.978 205.078 275.336 204.416C278.513 198.487 271.193 190.801 269.442 185.576C266.86 177.87 267.961 168.237 269.996 160.49C271.618 154.305 275.884 149.729 278.02 143.773C281.346 134.499 271.591 121.135 264.183 116.362C247.567 105.661 252.454 132.336 245.458 136.777C243.295 138.149 240.523 137.872 237.988 138.291C228.822 139.839 235.115 149.37 232.357 154.907C231.35 156.928 229.322 158.199 227.754 159.835C220.163 167.716 237.928 171.617 221.846 178.674C217.716 180.486 213.335 184.089 215.918 186.921C216.722 187.8 218.054 188.341 219.149 189.037C224.083 192.16 223.732 197.723 222.988 202.509C222.191 207.667 226.449 211.392 228.565 215.61C230.945 220.362 229.444 226.899 236.907 227.115C242.017 227.257 246.046 223.559 250.122 221.031C254.59 218.253 259.207 215.603 262.946 211.845C265.771 209.059 271.037 208.728 273.984 206.112Z" fill="#A7ADFF"/>
<path d="M236.055 231.793C235.974 231.793 235.893 231.786 235.805 231.759C235.298 231.624 235 231.103 235.136 230.596L256.699 150.519C256.835 150.012 257.362 149.715 257.862 149.85C258.369 149.985 258.667 150.506 258.531 151.013L236.968 231.09C236.853 231.509 236.474 231.793 236.055 231.793Z" fill="white"/>
<path d="M250.649 176.173C250.23 176.173 249.851 175.896 249.73 175.477L245.559 160.206C245.424 159.699 245.721 159.179 246.221 159.037C246.735 158.902 247.249 159.199 247.391 159.699L251.562 174.97C251.697 175.477 251.399 175.997 250.899 176.139C250.818 176.166 250.73 176.173 250.649 176.173Z" fill="white"/>
<path d="M242.585 205.152C242.166 205.152 241.781 204.875 241.666 204.449L237.495 189.185C237.36 188.678 237.657 188.158 238.164 188.016C238.664 187.881 239.192 188.178 239.334 188.685L243.504 203.949C243.64 204.456 243.342 204.976 242.835 205.118C242.754 205.139 242.673 205.152 242.585 205.152Z" fill="white"/>
<path d="M247.607 191.768C247.269 191.768 246.945 191.585 246.776 191.275C246.526 190.815 246.695 190.234 247.154 189.983L260.241 182.838C260.708 182.588 261.282 182.757 261.532 183.217C261.783 183.676 261.614 184.258 261.154 184.508L248.067 191.653C247.918 191.734 247.763 191.768 247.607 191.768Z" fill="white"/>
</svg>
