<svg width="255" height="231" viewBox="0 0 255 231" fill="none" xmlns="http://www.w3.org/2000/svg">
<path d="M91.8572 195.054C90.1334 191.695 88.6936 188.017 88.8964 184.279C89.2547 177.479 94.6963 172.449 99.3876 167.724C104.079 162.999 108.662 156.584 106.776 149.993C104.971 143.659 98.1911 140.482 92.4453 137.413C86.6994 134.344 80.5277 128.93 81.7039 122.521C83.3871 113.342 98.2249 112.105 99.7121 102.884C100.253 99.5448 98.7454 96.1987 97.2853 93.1095C92.2898 82.5574 87.2943 71.9986 82.2988 61.4465C80.014 56.6132 77.932 50.232 81.6026 46.5749C84.0766 44.1143 88.0176 44.2225 91.2826 43.0395C99.7594 39.9638 102.173 29.2427 104.011 20.2116C105.85 11.1805 110.264 0.567596 119.302 0.0200511C122.783 -0.189503 126.211 1.27062 129.246 3.12957C141.278 10.5113 148.829 25.0516 147.964 39.1729C147.592 45.2162 145.99 51.9489 149.552 56.9039C151.404 59.4794 154.304 60.9868 156.88 62.7984C166.715 69.734 172.265 82.5912 170.562 94.4817C169.399 102.593 165.276 111.185 169.108 118.526C173.394 126.74 185.393 128.288 189.476 136.602C192.835 143.45 189.226 151.48 185.014 157.598C180.803 163.716 175.692 170.063 175.976 177.641C176.125 181.562 177.741 185.313 178.214 189.214C179.41 199.164 173.002 208.283 165.512 214.502C155.839 222.54 141.116 231.01 128.144 226.454C113.286 221.248 99.1307 209.263 91.8572 195.054Z" fill="#E3E5FC"/>
<path d="M140.211 180.223C139.738 180.223 139.332 179.872 139.271 179.399L121.013 40.0653C120.945 39.5448 121.31 39.0717 121.831 38.9973C122.378 38.9162 122.825 39.2947 122.899 39.8152L141.157 179.149C141.225 179.669 140.86 180.142 140.339 180.217C140.292 180.223 140.251 180.223 140.211 180.223Z" fill="white"/>
<path d="M129.125 88.5672C128.996 88.5672 128.868 88.5401 128.746 88.486C128.266 88.2765 128.043 87.7154 128.26 87.2355L142.232 55.221C142.442 54.7343 143.009 54.518 143.483 54.7275C143.963 54.9371 144.186 55.4981 143.969 55.9781L129.997 87.9926C129.841 88.3508 129.49 88.5672 129.125 88.5672Z" fill="white"/>
<path d="M135.053 140.874C134.803 140.874 134.553 140.78 134.37 140.584L114.152 119.682C113.787 119.304 113.8 118.702 114.172 118.337C114.55 117.972 115.152 117.979 115.517 118.357L135.736 139.259C136.101 139.637 136.087 140.239 135.715 140.604C135.533 140.786 135.29 140.874 135.053 140.874Z" fill="white"/>
<path d="M21.8259 226.4C22.3734 220.816 22.3599 215.638 24.1918 210.19C24.807 208.351 25.6857 206.391 27.4298 205.552C27.761 205.39 28.1531 205.282 28.4843 205.424C28.775 205.552 28.9575 205.843 29.1062 206.134C38.597 224.318 13.126 234.545 1.50589 220.87C0.789355 220.025 0.113373 219.059 0.0119761 217.95C-0.170539 215.922 1.76277 214.171 3.78395 213.935C5.80514 213.698 7.78576 214.617 9.45544 215.773C13.8764 218.836 16.8169 223.554 19.629 228.13C15.7083 222.236 13.6871 215.104 13.9237 208.033C13.9575 206.972 14.3157 205.613 15.377 205.525C15.884 205.485 16.3504 205.776 16.756 206.086C19.6492 208.31 21.2784 211.873 21.8867 215.476C22.4884 219.079 22.1774 222.763 21.8259 226.4Z" fill="#FDC510"/>
<path d="M237.991 204.734C238.167 204.741 238.349 204.782 238.532 204.883C239.106 205.194 239.316 205.904 239.451 206.546C240.702 212.414 240.668 210.974 240.046 218.666C241.357 213.86 240.837 214.705 243.291 210.365C243.771 209.52 244.298 208.655 245.123 208.148C250.476 204.87 245.292 219.39 244.386 221.059C241.026 227.238 234.489 228.772 228.155 226.494C222.592 224.5 217.279 220.167 215.291 214.502C215.109 213.989 214.981 213.353 215.366 212.961C215.629 212.697 216.042 212.657 216.414 212.657C219.773 212.65 222.923 214.36 225.485 216.523C228.047 218.687 230.177 221.323 232.597 223.655C234.307 225.304 238.086 225.21 240.445 225.494C244.46 225.98 246.042 224.419 249.53 222.371C250.287 221.925 251.118 221.512 252.004 221.526C252.883 221.532 253.816 222.087 253.985 222.952C254.086 223.466 253.904 223.993 253.68 224.466C250.828 230.496 243.047 229.685 239.62 224.872C236.348 220.282 234.246 212.637 235.808 207.134C236.125 206.032 237.004 204.714 237.991 204.734Z" fill="#A7ADFF"/>
<path d="M132.667 183.914C128.659 179.453 124.724 174.971 123.508 169.137C122.879 166.116 123.927 161.979 127.002 161.803C128.55 161.715 129.909 162.736 131.281 163.459C136.561 166.258 136.595 159.964 135.141 156.632C132.586 150.757 128.679 144.897 129.544 138.549C129.598 138.15 129.686 137.731 129.963 137.434C130.376 136.994 131.065 136.994 131.66 137.069C135.723 137.603 139.907 142.882 144.091 141.158C154.312 136.954 145.47 113.477 144.774 106.23C144.639 104.845 144.524 103.364 145.193 102.148C146.491 99.7816 150.04 99.7343 152.365 101.093C155.934 103.182 157.962 107.238 161.856 108.887C164.925 110.185 168.42 108.698 170.678 106.508C177.471 99.9236 179.053 89.1687 184.407 81.5301C188.787 75.2773 200.968 65.7662 207.789 74.2295C210.912 78.1029 209.046 83.7541 207.769 88.5603C206.579 93.0151 205.606 98.2539 206.058 102.857C206.396 106.23 207.836 109.651 210.601 111.611C215.975 115.417 226.074 115.539 220.518 124.597C218.814 127.368 216.171 129.423 214.136 131.965C212.102 134.507 210.682 138.015 212 140.989C214.4 146.418 230.495 148.418 224.33 156.943C222.789 159.079 220.335 160.323 218.057 161.641C207.039 168.008 216.928 173.599 214.799 182.353C214.035 185.503 211.649 188.065 208.891 189.755C204.456 192.472 199.076 193.506 194.33 195.575C184.691 199.786 176.072 206.053 168.014 212.745C162.106 217.653 152.838 228.61 144.125 223.317C138.751 220.052 142.104 210.886 142.597 206.114C143.564 196.832 138.575 190.492 132.667 183.914Z" fill="#FDC510"/>
<path d="M147.958 230.138C147.809 230.138 147.66 230.111 147.512 230.057C146.856 229.813 146.525 229.083 146.775 228.428L187.232 120.852C187.476 120.196 188.213 119.865 188.861 120.115C189.517 120.359 189.848 121.089 189.598 121.744L149.141 229.32C148.952 229.827 148.472 230.138 147.958 230.138Z" fill="white"/>
<path d="M176.606 155.766C176.2 155.766 175.795 155.57 175.551 155.205C175.166 154.624 175.321 153.84 175.903 153.448L195.587 140.32C196.162 139.935 196.953 140.084 197.345 140.672C197.73 141.253 197.575 142.037 196.993 142.429L177.309 155.557C177.092 155.699 176.849 155.766 176.606 155.766Z" fill="white"/>
<path d="M162.343 194.919C161.937 194.919 161.531 194.723 161.288 194.358C160.903 193.777 161.058 192.993 161.64 192.601L181.324 179.473C181.899 179.088 182.69 179.243 183.082 179.825C183.467 180.406 183.312 181.19 182.73 181.582L163.046 194.71C162.829 194.852 162.586 194.919 162.343 194.919Z" fill="white"/>
<path d="M167.047 175.681C166.635 175.681 166.223 175.478 165.979 175.1L153.453 155.55C153.075 154.962 153.251 154.178 153.839 153.8C154.42 153.421 155.211 153.59 155.589 154.185L168.115 173.734C168.494 174.322 168.318 175.106 167.73 175.485C167.521 175.62 167.284 175.681 167.047 175.681Z" fill="white"/>
<path d="M103.397 224.797C86.4098 226.724 69.9766 224.824 63.1898 207.269C60.7495 200.949 57.1736 198.461 50.8193 196.67C47.7301 195.798 44.4921 194.797 42.2952 192.452C40.105 190.106 39.4899 185.969 41.8693 183.813C43.7688 182.089 46.6553 182.258 49.2037 182.522C53.4286 182.968 57.6603 183.407 61.8851 183.853C62.4868 183.914 63.1222 183.975 63.663 183.711C65.4611 182.839 64.3322 180.108 63.0005 178.621C58.0253 173.058 52.9014 167.623 47.6422 162.337C45.6954 160.383 43.6607 158.328 42.863 155.685C42.0654 153.042 43.005 149.649 45.594 148.689C49.1835 147.35 53.3881 151.244 56.7747 149.459C59.2015 148.182 59.4989 144.795 58.8635 142.132C58.2281 139.468 56.9775 136.805 57.4575 134.108C57.9171 131.532 60.087 129.356 62.6625 128.896C65.2313 128.429 68.0298 129.714 69.3547 131.965C70.8149 134.439 70.7202 137.974 73.12 139.556C75.1344 140.881 77.8856 140.043 79.8865 138.704C81.8942 137.366 83.6382 135.541 85.923 134.763C89.7964 133.439 94.5215 136.014 95.5152 139.982C96.5022 143.937 94.2241 148.493 96.2723 152.021C98.1786 155.307 102.789 155.753 106.513 155.002C110.238 154.252 113.983 152.704 117.714 153.441C118.999 153.691 120.344 154.326 120.865 155.523C121.432 156.834 120.844 158.348 120.141 159.592C118.012 163.33 114.781 166.359 112.753 170.151C110.725 173.943 110.245 179.169 113.361 182.129C114.997 183.691 117.282 184.299 119.35 185.225C121.419 186.152 123.501 187.706 123.792 189.951C124.285 193.743 119.749 195.933 117.41 198.955C114.368 202.875 115.119 208.385 115.004 213.346C114.673 227.468 100.862 227.163 90.3643 224.581" fill="#F44E4E"/>
<path d="M105.77 227.657C105.256 227.657 104.776 227.346 104.587 226.839L81.1572 164.547C80.9071 163.891 81.2383 163.161 81.894 162.918C82.543 162.668 83.2798 162.999 83.5231 163.655L106.953 225.946C107.203 226.602 106.872 227.332 106.216 227.576C106.067 227.63 105.918 227.657 105.77 227.657Z" fill="white"/>
<path d="M89.1811 184.59C88.9377 184.59 88.6944 184.522 88.478 184.38L77.081 176.782C76.4996 176.397 76.3442 175.606 76.7295 175.025C77.1148 174.443 77.9124 174.288 78.487 174.673L89.8841 182.271C90.4654 182.657 90.6209 183.448 90.2356 184.029C89.9855 184.394 89.5866 184.59 89.1811 184.59Z" fill="white"/>
<path d="M97.4417 207.262C97.1984 207.262 96.955 207.195 96.7387 207.053L85.3349 199.455C84.7536 199.069 84.5981 198.279 84.9834 197.697C85.3755 197.116 86.1596 196.96 86.7409 197.346L98.1447 204.944C98.7261 205.329 98.8816 206.12 98.4963 206.701C98.2461 207.066 97.8473 207.262 97.4417 207.262Z" fill="white"/>
<path d="M94.7109 196.122C94.4743 196.122 94.2377 196.054 94.0281 195.919C93.44 195.541 93.2643 194.757 93.6428 194.168L100.896 182.853C101.275 182.258 102.066 182.089 102.647 182.467C103.235 182.846 103.411 183.63 103.032 184.218L95.7789 195.534C95.5356 195.919 95.13 196.122 94.7109 196.122Z" fill="white"/>
</svg>
