<svg width="312" height="259" viewBox="0 0 312 259" fill="none" xmlns="http://www.w3.org/2000/svg">
<path d="M1.12167 258.61C-0.703737 256.792 0.180335 244.017 0.466674 241.966C1.61203 233.748 2.75739 225.527 3.90274 217.309C6.22567 200.637 8.54859 183.968 10.8679 167.296C11.1328 165.392 11.3977 163.484 11.6661 161.58C12.2173 158.409 15.3635 155.997 18.6528 156.219C21.9457 156.437 24.1863 159.211 23.6351 162.382C16.7093 193.775 8.29447 225.226 3.169 256.784C3.10099 257.21 3.02225 257.654 2.73233 258.023C2.04154 258.882 1.51897 259.004 1.12167 258.61Z" fill="#E3E5FC"/>
<path d="M78.1145 258.277C79.897 256.405 78.723 243.659 78.3901 241.619C77.0586 233.437 75.7271 225.255 74.3957 217.073C71.6969 200.48 68.9946 183.883 66.2958 167.289C65.988 165.392 65.6802 163.495 65.3688 161.598C64.746 158.445 61.5462 156.129 58.2605 156.451C54.9747 156.77 52.7985 159.612 53.4213 162.762C61.0594 193.933 70.1829 225.119 76.0242 256.509C76.103 256.931 76.1924 257.375 76.4895 257.733C77.2018 258.578 77.7279 258.685 78.1145 258.277Z" fill="#E3E5FC"/>
<path d="M68.0075 171.015H10.0775C4.73369 171.015 0.359863 166.641 0.359863 161.298C0.359863 155.954 4.73369 151.58 10.0775 151.58H68.0075C73.3513 151.58 77.7251 155.954 77.7251 161.298C77.7287 166.645 73.3549 171.015 68.0075 171.015Z" fill="#A7ADFF"/>
<path d="M208.635 102.63L229.22 56.2396C229.545 55.5059 230.411 55.173 231.145 55.4987L231.503 55.6562C232.237 55.9819 232.57 56.8481 232.244 57.5819L211.656 103.972C211.331 104.706 210.464 105.039 209.731 104.713L209.373 104.556C208.643 104.23 208.31 103.364 208.635 102.63Z" fill="#4B369D"/>
<path d="M228.525 54.8796L212.468 6.73525C212.214 5.97287 212.629 5.14249 213.392 4.88836L213.764 4.76309C214.526 4.50896 215.357 4.92416 215.611 5.68653L231.667 53.8309C231.921 54.5933 231.506 55.4236 230.744 55.6778L230.372 55.803C229.609 56.0536 228.779 55.6384 228.525 54.8796Z" fill="#4B369D"/>
<path d="M230.837 60.6386C233.083 60.6386 234.904 58.8181 234.904 56.5725C234.904 54.3269 233.083 52.5065 230.837 52.5065C228.592 52.5065 226.771 54.3269 226.771 56.5725C226.771 58.8181 228.592 60.6386 230.837 60.6386Z" fill="#A7ADFF"/>
<path d="M208.474 99.7883C200.965 99.7883 194.88 105.472 194.88 112.487H222.068C222.068 105.472 215.98 99.7883 208.474 99.7883Z" fill="#E3E5FC"/>
<path d="M216.542 1.21607C212.483 -2.84278 199.469 3.58911 187.475 15.5831L202.175 30.2831C214.169 18.289 220.6 5.27493 216.542 1.21607Z" fill="#F3AA02"/>
<path d="M186.265 32.8782C186.089 32.8782 185.91 32.8102 185.781 32.6706C185.524 32.4021 185.535 31.9798 185.803 31.7221L192.034 25.7662C192.303 25.5085 192.729 25.5193 192.983 25.7877C193.241 26.0561 193.23 26.4785 192.961 26.7362L186.73 32.692C186.601 32.8173 186.433 32.8782 186.265 32.8782Z" fill="#E3E5FC"/>
<path d="M193.298 39.0953C193.187 39.0953 193.072 39.0667 192.968 39.0094C192.646 38.8269 192.532 38.4189 192.714 38.0967L196.934 30.5803C197.113 30.2582 197.521 30.1437 197.847 30.3226C198.169 30.5052 198.284 30.9132 198.101 31.2353L193.881 38.7517C193.759 38.9736 193.53 39.0953 193.298 39.0953Z" fill="#E3E5FC"/>
<path d="M179.407 25.938C179.138 25.938 178.884 25.777 178.781 25.5121C178.645 25.1685 178.816 24.7784 179.16 24.6424L187.195 21.5177C187.543 21.3852 187.929 21.5535 188.065 21.9007C188.201 22.2478 188.029 22.6344 187.686 22.7704L179.65 25.8951C179.572 25.9237 179.489 25.938 179.407 25.938Z" fill="#E3E5FC"/>
<path d="M279.736 186.477C279.729 186.477 257.098 186.477 257.098 186.477C257.388 188.407 257.67 190.364 257.967 192.322H278.455C278.731 189.069 279.135 186.477 279.736 186.477Z" fill="#4B369D"/>
<path d="M261.551 209.07C261.973 209.495 262.546 209.506 263.076 209.492C266.132 209.424 269.196 209.617 272.256 209.599C275.145 209.585 277.536 209.818 277.836 205.018C277.901 204.005 278.022 197.369 278.452 192.319H257.964C258.737 197.469 259.589 202.659 260.871 207.552C261.021 208.121 261.193 208.708 261.551 209.07Z" fill="#F3AA02"/>
<path d="M268.415 203.468C270.39 203.468 271.991 201.867 271.991 199.893C271.991 197.918 270.39 196.317 268.415 196.317C266.44 196.317 264.839 197.918 264.839 199.893C264.839 201.867 266.44 203.468 268.415 203.468Z" fill="white"/>
<path d="M265.237 183.761C265.237 183.761 257.728 178.721 263.076 175.536C268.423 172.35 267.625 167.944 265.237 167.228C262.85 166.516 270.23 163.595 270.23 163.595C270.23 163.595 265.237 165.288 268.158 167.228C271.075 169.168 278.506 173.943 272.933 175.536C267.363 177.129 278.559 179.763 274.948 182.691C271.34 185.619 265.237 183.761 265.237 183.761Z" fill="#E3E5FC"/>
<path d="M75.3232 54.1496L69.3173 72.282L53.4004 73.9106C53.4004 73.9106 65.5161 63.5988 67.1268 51.9161C68.7374 40.2335 75.3232 54.1496 75.3232 54.1496Z" fill="#D4A79A"/>
<path d="M100.908 27.1477C100.908 27.1477 102.913 32.1586 96.3769 44.0703C89.8412 55.982 81.906 65.5099 78.2767 63.6953C68.2334 58.6772 66.5547 50.1586 64.6291 42.7102C62.2668 33.5796 76.4871 16.7536 76.4871 16.7536L86.2011 14.4951L100.908 27.1477Z" fill="#EAC2AB"/>
<path d="M113.339 26.9008C113.443 26.7218 113.543 26.5357 113.639 26.346C115.622 22.4518 116.374 17.3729 115.533 13.0778C114.108 5.79759 106.796 5.02448 100.654 6.34164C97.8479 6.94295 95.2207 8.7791 92.25 7.82702C90.0344 7.11833 88.9141 5.03879 87.2283 3.625C85.2955 2.0036 82.8759 1.05152 80.3526 0.786659C75.1233 0.239036 70.3128 2.94494 67.4458 7.22213C66.2683 8.98312 65.5131 11.009 65.3985 13.1243C64.876 12.3906 64.1315 12.1507 63.2402 12.3225C55.9422 13.7435 56.3609 24.338 56.6831 29.8966C56.9515 34.5389 56.6902 40.3122 59.5178 44.2887C60.6453 45.8743 63.6017 48.3977 65.3985 46.6367C67.002 45.0654 65.7493 40.2513 66.1788 38.1897C66.7801 35.2941 66.5152 21.4138 81.2832 22.4589C87.1531 22.8741 91.2907 32.9139 96.8099 34.6606C102.426 36.4395 110.211 32.2768 113.339 26.9008Z" fill="#4B369D"/>
<path d="M67.5056 34.3528C67.5056 34.3528 63.411 29.8071 63.9157 36.7974C64.4239 43.7841 68.0962 45.1943 68.0962 45.1943L67.5056 34.3528Z" fill="#EAC2AB"/>
<path d="M145.157 203.497L154.631 226.912L147.602 231.086L139.083 206.031C139.083 206.031 142.612 203.164 145.157 203.497Z" fill="#EAC2AB"/>
<path d="M187.113 230.252C187.113 230.252 181.866 233.445 171.25 236.498C160.637 239.554 148.697 242.439 146.206 241.186C143.715 239.934 139.695 225.767 143.285 225.03C146.875 224.296 149.27 229.536 154.706 223.308C159.363 217.971 165.136 225.051 174.961 225.244C184.786 225.438 188.763 225.506 187.113 230.252Z" fill="#F3AA02"/>
<path d="M73.741 136.275C78.5228 136.816 90.4775 142.403 94.8835 144.056C104.34 147.607 118.532 168.045 124.287 175.278C130.633 183.253 136.668 186.044 142.373 194.359C146.364 200.125 154.199 201.614 158.24 206.872C161.318 210.877 159.904 210.92 155.183 213.483C148.708 216.998 129.588 235.549 126.642 224.213C125.543 219.979 117.701 210.995 114.845 207.463C108.141 199.17 110.056 186.46 104.308 177.673C101.509 173.395 99.4972 168.37 94.6187 165.714C90.524 163.485 85.3234 163.456 80.4413 163.506C73.7123 163.57 69.9326 151.877 63.2001 151.942C54.3272 152.027 45.1464 160.639 38.0309 156.186C26.0691 148.695 42.2687 148.051 48.9619 147.79C62.2122 147.278 60.5729 134.793 73.741 136.275Z" fill="#4B369D"/>
<path d="M118.413 218.479L129.706 241.057L122.547 245.61L112.164 221.354C112.164 221.354 115.715 218.304 118.413 218.479Z" fill="#EAC2AB"/>
<path d="M162.267 248.148C162.267 248.148 156.504 250.864 145.119 253.001C133.733 255.138 120.966 256.999 118.446 255.557C115.926 254.114 112.805 239.794 116.635 239.364C120.461 238.935 122.573 244.307 128.765 238.609C134.073 233.727 139.585 241.193 149.893 242.199C160.198 243.201 164.371 243.599 162.267 248.148Z" fill="#FDC510"/>
<path d="M63.2004 133.906C67.9823 134.589 72.3955 136.579 76.8015 138.68C86.2579 143.19 94.1644 155.528 99.9198 164.712C106.266 174.845 112.3 185.203 118.006 195.762C120.171 199.771 121.059 204.259 123.07 208.297C126.399 214.975 143.604 224.106 132.405 231.662C125.218 236.508 113.857 234.174 105.754 234.146C105.332 234.146 104.877 234.132 104.548 233.87C104.158 233.559 104.075 233.008 104.022 232.51C102.898 221.962 101.824 213.139 97.0457 203.586C90.3418 193.053 85.6888 185.729 79.9405 174.573C77.1415 169.14 77.3312 164.673 72.4563 161.301C68.3617 158.466 64.1382 159.315 59.2597 159.376C52.5307 159.458 46.7538 159.293 40.0248 159.376C31.1519 159.483 25.3571 159.197 20.5609 151.473C11.373 136.672 17.9087 136.941 24.5983 136.612C37.8451 135.953 50.0324 132.019 63.2004 133.906Z" fill="#5A54FF"/>
<path d="M73.9706 82.7621C73.9706 82.7621 79.5829 104.216 81.7519 104.692C83.5701 105.089 85.7928 104.699 87.6254 104.617C91.3872 104.445 95.149 104.202 98.9036 103.948C105.407 103.504 112.104 103.346 118.546 102.29C122.484 101.646 129.703 100.683 132.684 97.7949C136.733 93.8792 143.948 102.877 145.992 105.272C146.289 105.619 146.572 106.17 146.235 106.475C146.082 106.614 145.856 106.628 145.648 106.618C144.188 106.557 142.9 105.698 141.697 104.875C142.789 106.109 143.694 107.509 144.371 109.012C143.039 108.504 141.887 107.613 140.573 107.065C135.287 104.867 131.002 112.559 125.079 109.821C121.106 107.985 116.624 109.241 112.494 109.699C108.775 110.111 105.053 110.494 101.327 110.856C94.3615 111.536 87.0778 112.717 80.0625 112.445C79.633 112.427 79.1462 112.477 78.7274 112.337C76.5226 111.593 72.3206 102.144 69.1995 93.9043C67.2309 88.7072 64.6789 83.1165 66.5079 74.9808C68.1901 67.5217 76.0251 70.8898 73.9706 82.7621Z" fill="#EAC2AB"/>
<path d="M64.4642 97.8376C65.4878 93.7035 66.8014 89.727 68.3083 86.044C70.6706 80.2707 74.9048 72.4178 71.2898 66.24C70.7815 65.3703 70.2232 64.4934 69.3749 63.8419C59.9328 56.5904 45.283 70.4206 39.1768 77.6614C31.4815 86.7849 31.2095 90.6791 27.9488 101.402C24.3266 113.311 21.0766 125.781 15.5897 137.116C14.9991 138.34 14.5123 140.012 15.7722 140.831C16.3449 141.204 17.1001 141.247 17.8052 141.247C22.7052 141.239 27.4011 139.894 32.0148 138.598C39.3236 136.547 39.0015 135.742 46.6503 137.077C49.6533 137.599 52.5059 136.705 55.5483 136.679C56.2999 136.672 59.285 136.325 59.9221 136.028C64.8972 133.712 58.8304 132.356 58.5835 131.747C54.0056 120.419 61.4469 110.025 64.4642 97.8376Z" fill="#D7384E"/>
<path d="M76.0788 89.8165C76.0788 89.8165 76.9771 63.8563 65.341 65.764C53.7049 67.6718 58.5262 96.9321 58.5262 96.9321L77.5355 93.5497L76.0788 89.8165Z" fill="#F44E4E"/>
<path d="M99.4042 258.549C97.654 256.094 99.1322 238.011 99.5152 235.098C101.047 223.429 102.579 211.758 104.111 200.089C107.218 176.42 110.324 152.75 113.431 129.081C113.786 126.375 114.14 123.669 114.498 120.963C115.199 116.457 118.474 112.86 121.778 112.971C125.082 113.081 127.208 116.858 126.506 121.364C118.084 166.09 108.166 210.992 101.548 255.843C101.459 256.448 101.358 257.081 101.051 257.618C100.321 258.878 99.7872 259.082 99.4042 258.549Z" fill="#E3E5FC"/>
<path d="M217.061 258.549C218.811 256.094 217.333 238.011 216.95 235.098C215.418 223.429 213.886 211.758 212.354 200.089C209.248 176.42 206.141 152.75 203.034 129.081C202.68 126.375 202.325 123.669 201.967 120.963C201.266 116.457 197.991 112.86 194.687 112.971C191.384 113.081 189.258 116.858 189.959 121.364C198.381 166.09 208.299 210.992 214.917 255.843C215.007 256.448 215.107 257.081 215.415 257.618C216.148 258.878 216.682 259.082 217.061 258.549Z" fill="#E3E5FC"/>
<path d="M268.162 119.9H73.4332C71.393 119.9 69.7251 118.232 69.7251 116.192C69.7251 114.152 71.393 112.484 73.4332 112.484H268.162C270.202 112.484 271.87 114.152 271.87 116.192C271.87 118.232 270.202 119.9 268.162 119.9Z" fill="#A7ADFF"/>
<path d="M234.925 100.086C236.221 99.2873 236.84 97.5371 236.332 96.1018C235.501 93.7538 233.357 94.5448 231.829 93.3136C230.032 91.864 232.205 89.5804 232.087 87.866C231.954 85.9797 230.258 84.1615 229.749 82.3396C228.579 78.1519 233.336 81.2766 234.696 80.7898C235.265 80.5858 235.637 80.0131 235.766 79.4261C236.099 77.9229 235.466 76.7059 236.289 75.2814C237.083 73.907 238.261 73.2842 237.921 71.4194C237.728 70.3599 237.076 69.3935 237.094 68.3198C237.098 68.012 237.187 67.6648 237.456 67.5144C237.66 67.3999 237.914 67.4321 238.136 67.5073C238.869 67.765 239.349 68.4486 239.94 68.9533C240.53 69.458 241.479 69.7729 242.044 69.2396C242.42 68.8853 242.459 68.3126 242.535 67.8008C242.674 66.8773 243.322 66.2367 244.124 66.77C245.001 67.3498 244.664 69.6405 244.532 70.4637C244.321 71.7666 244.006 73.1195 244.392 74.3794C245.033 76.4661 246.779 74.1289 247.542 73.4381C248.165 72.8726 249.21 72.5325 249.811 73.1231C251.003 74.3007 249.085 75.872 248.834 76.9887C248.712 77.5184 248.87 78.1555 249.342 78.4275C250.724 79.2293 251.891 77.8012 252.098 79.9308C252.241 81.3876 250.921 82.7799 251.74 84.2366C252.456 85.5109 254.836 86.0513 253.895 87.8409C253.315 88.9398 250.828 88.8897 250.96 90.4502C251.046 91.4667 252.578 91.932 252.578 92.9521C252.578 93.7216 251.683 94.1762 250.914 94.2156C250.144 94.2549 249.335 94.076 248.626 94.3766C247.821 94.7167 247.356 95.7045 247.606 96.5421C247.821 97.2686 248.501 97.9344 248.286 98.661C248.029 99.5379 246.815 99.5701 245.913 99.4305C242.234 98.8507 238.286 98.4677 234.925 100.086Z" fill="#FDC510"/>
<path d="M241.886 100.157C241.514 100.157 241.217 99.8565 241.217 99.4879V83.0413C241.217 82.6726 241.517 82.3719 241.886 82.3719C242.255 82.3719 242.555 82.6726 242.555 83.0413V99.4879C242.555 99.8565 242.258 100.157 241.886 100.157Z" fill="white"/>
<path d="M241.886 93.7539C241.736 93.7539 241.589 93.7038 241.464 93.6036C241.174 93.3709 241.131 92.9486 241.364 92.6587L245.677 87.3399C245.913 87.05 246.335 87.0106 246.622 87.2397C246.908 87.4724 246.955 87.8947 246.718 88.1846L242.405 93.5034C242.273 93.6716 242.083 93.7539 241.886 93.7539Z" fill="white"/>
<path d="M241.886 89.2655C241.732 89.2655 241.579 89.2154 241.453 89.108L236.313 84.7808C236.031 84.5409 235.995 84.1186 236.231 83.8358C236.471 83.5531 236.893 83.5173 237.176 83.7535L242.316 88.0808C242.599 88.3206 242.634 88.743 242.398 89.0257C242.266 89.1832 242.076 89.2655 241.886 89.2655Z" fill="white"/>
<path d="M234.206 97.7806C234.882 102.276 235.491 106.979 236.629 111.314C236.722 111.675 236.836 112.055 237.062 112.284C237.334 112.559 237.702 112.563 238.043 112.556C240.004 112.509 241.973 112.638 243.938 112.627C245.792 112.617 247.327 112.767 247.52 109.685C247.588 108.619 247.757 97.7806 248.741 97.7806C248.737 97.7806 234.206 97.7806 234.206 97.7806Z" fill="#D7384E"/>
<path d="M247.413 100.469H235.534C234.055 100.469 232.846 99.2589 232.846 97.7807C232.846 96.3024 234.055 95.0927 235.534 95.0927H247.413C248.891 95.0927 250.101 96.3024 250.101 97.7807C250.101 99.2589 248.891 100.469 247.413 100.469Z" fill="#F44E4E"/>
<path d="M163.863 112.079H103.814C103.013 112.079 102.354 111.424 102.354 110.619C102.354 109.817 103.009 109.158 103.814 109.158H163.863C164.665 109.158 165.324 109.813 165.324 110.619C165.32 111.424 164.665 112.079 163.863 112.079Z" fill="#4B369D"/>
<path d="M162.364 110.025L192.39 58.022C192.791 57.3276 193.689 57.0878 194.384 57.4887C195.078 57.8896 195.318 58.7879 194.917 59.4823L164.891 111.485C164.49 112.179 163.591 112.419 162.897 112.018C162.203 111.618 161.963 110.719 162.364 110.025Z" fill="#4B369D"/>
<path d="M297.225 224.213H236.872C233.489 224.213 230.726 221.447 230.726 218.068V215.752C230.726 212.37 233.493 209.606 236.872 209.606H297.225C300.607 209.606 303.37 212.373 303.37 215.752V218.068C303.37 221.45 300.604 224.213 297.225 224.213Z" fill="#A7ADFF"/>
<path d="M305.854 240.098H245.501C242.119 240.098 239.355 237.331 239.355 233.953V231.637C239.355 228.254 242.122 225.491 245.501 225.491H305.854C309.237 225.491 312 228.258 312 231.637V233.953C312.003 237.331 309.237 240.098 305.854 240.098Z" fill="#A7ADFF"/>
<path d="M297.225 256.137H236.872C233.489 256.137 230.726 253.37 230.726 249.991V247.675C230.726 244.293 233.493 241.53 236.872 241.53H297.225C300.607 241.53 303.37 244.296 303.37 247.675V249.991C303.37 253.37 300.604 256.137 297.225 256.137Z" fill="#A7ADFF"/>
<path d="M236.646 218.472C237.571 218.472 238.321 217.722 238.321 216.797C238.321 215.872 237.571 215.122 236.646 215.122C235.721 215.122 234.971 215.872 234.971 216.797C234.971 217.722 235.721 218.472 236.646 218.472Z" fill="white"/>
<path d="M296.999 218.472C297.924 218.472 298.674 217.722 298.674 216.797C298.674 215.872 297.924 215.122 296.999 215.122C296.074 215.122 295.324 215.872 295.324 216.797C295.324 217.722 296.074 218.472 296.999 218.472Z" fill="white"/>
<path d="M245.029 233.784C245.954 233.784 246.704 233.034 246.704 232.109C246.704 231.184 245.954 230.434 245.029 230.434C244.103 230.434 243.354 231.184 243.354 232.109C243.354 233.034 244.103 233.784 245.029 233.784Z" fill="white"/>
<path d="M305.382 233.784C306.307 233.784 307.057 233.034 307.057 232.109C307.057 231.184 306.307 230.434 305.382 230.434C304.457 230.434 303.707 231.184 303.707 232.109C303.707 233.034 304.457 233.784 305.382 233.784Z" fill="white"/>
<path d="M236.983 250.421C237.908 250.421 238.658 249.671 238.658 248.746C238.658 247.82 237.908 247.07 236.983 247.07C236.058 247.07 235.308 247.82 235.308 248.746C235.308 249.671 236.058 250.421 236.983 250.421Z" fill="white"/>
<path d="M297.336 250.421C298.261 250.421 299.011 249.671 299.011 248.746C299.011 247.82 298.261 247.07 297.336 247.07C296.411 247.07 295.661 247.82 295.661 248.746C295.661 249.671 296.411 250.421 297.336 250.421Z" fill="white"/>
</svg>
